<?xml version="1.0" standalone="no"?><!DOCTYPE svg PUBLIC "-//W3C//DTD SVG 1.1//EN" "http://www.w3.org/Graphics/SVG/1.1/DTD/svg11.dtd"><svg t="1606110237597" class="icon" viewBox="0 0 1024 1024" version="1.1" xmlns="http://www.w3.org/2000/svg" p-id="4697" width="150" height="150" xmlns:xlink="http://www.w3.org/1999/xlink"><defs><style type="text/css"></style></defs><path d="M959.84 218.24a72.64 72.64 0 0 0-56.96-64 1345.92 1345.92 0 0 1-184-42.88 682.24 682.24 0 0 1-164.48-96 73.92 73.92 0 0 0-87.68 0 430.72 430.72 0 0 1-165.76 96 608 608 0 0 1-178.88 44.8 67.2 67.2 0 0 0-56.32 64S63.84 379.84 63.84 520.96C63.84 776.64 362.4 1024 511.84 1024s402.24-174.4 442.56-499.2a2953.92 2953.92 0 0 0 3.2-305.92h2.56zM797.28 416l-311.68 296.96a41.6 41.6 0 0 1-51.84 5.12l-8.32-7.04-171.84-181.12A43.52 43.52 0 0 1 255.84 468.8a41.92 41.92 0 0 1 60.48 2.56l141.76 150.08L739.04 352a42.56 42.56 0 0 1 60.8 2.56 43.84 43.84 0 0 1-2.56 61.44z" p-id="4698" fill="#889AA4"></path></svg>